<?xml version="1.0" encoding="UTF-8"?>
<svg version="1.1" xmlns="http://www.w3.org/2000/svg" width="2048" height="2048">
<path d="M0 0 C675.84 0 1351.68 0 2048 0 C2048 675.84 2048 1351.68 2048 2048 C1372.16 2048 696.32 2048 0 2048 C0 1372.16 0 696.32 0 0 Z " fill="#F0E7DE" transform="translate(0,0)"/>
<path d="M0 0 C83.49 0 166.98 0 253 0 C253 2.64 253 5.28 253 8 C251.90945313 8.01417969 250.81890625 8.02835938 249.6953125 8.04296875 C230.60499462 8.54506441 212.60865975 12.86022434 198.35546875 26.3203125 C174.31137072 53.673963 177.6898269 97.64403625 177.76786876 131.52520967 C177.77660743 136.29514666 177.77357583 141.06507921 177.77206421 145.83502197 C177.77102186 154.07418504 177.77722989 162.31331613 177.78853989 170.55247116 C177.80488094 182.46450603 177.81001164 194.37652562 177.81251587 206.28857048 C177.81687956 225.62093723 177.83015246 244.95328699 177.84912109 264.28564453 C177.86751437 283.05126867 177.88165395 301.81688818 177.89013672 320.58251953 C177.89092489 322.32124207 177.89092489 322.32124207 177.89172898 324.09509031 C177.89433929 329.91092412 177.89686665 335.72675795 177.89935279 341.54259181 C177.92004395 389.69507295 177.95523309 437.84753564 178 486 C180.85846007 483.17097124 183.71094984 480.33599221 186.5625 477.5 C187.36236328 476.70851563 188.16222656 475.91703125 188.98632812 475.1015625 C193.35014015 470.75556196 197.56082723 466.34520836 201.56311989 461.66296959 C203.47136714 459.45446442 205.50578177 457.39777959 207.5859375 455.3515625 C208.37097656 454.57425781 209.15601563 453.79695313 209.96484375 452.99609375 C211.15787109 451.82240234 211.15787109 451.82240234 212.375 450.625 C213.98925662 449.03616475 215.60135326 447.44513097 217.2109375 445.8515625 C217.91524902 445.15885254 218.61956055 444.46614258 219.34521484 443.75244141 C221.07621474 442.08833587 221.07621474 442.08833587 222 440 C222.66 440 223.32 440 224 440 C224.23178955 439.44151367 224.4635791 438.88302734 224.70239258 438.30761719 C226.34019671 435.39500672 228.37538715 433.41809206 230.76171875 431.078125 C231.23060013 430.61444519 231.69948151 430.15076538 232.18257141 429.67303467 C233.67951598 428.19382975 235.18295749 426.72147299 236.6875 425.25 C238.65321238 423.32120693 240.61562588 421.38914745 242.57421875 419.453125 C243.29138565 418.74434204 243.29138565 418.74434204 244.02304077 418.02124023 C247.26003971 414.79808093 250.28079822 411.45093572 253.24536133 407.97949219 C257.5659525 403.1052257 262.33256686 398.63319249 266.97265625 394.06640625 C270.59559045 390.47836387 274.1559442 386.89506696 277.4765625 383.0234375 C281.67842668 378.12737354 286.28046514 373.64928204 290.875 369.125 C292.58300524 367.4424115 294.28885251 365.75762867 295.9921875 364.0703125 C297.11149658 362.96840576 297.11149658 362.96840576 298.25341797 361.84423828 C300.06693877 360.10805576 300.06693877 360.10805576 301 358 C301.66 358 302.32 358 303 358 C303.24081299 357.43249023 303.48162598 356.86498047 303.72973633 356.28027344 C305.25625408 353.53999364 307.08200967 351.70960709 309.32421875 349.515625 C310.18853516 348.66226562 311.05285156 347.80890625 311.94335938 346.9296875 C312.84892578 346.04539062 313.75449219 345.16109375 314.6875 344.25 C320.08955207 338.95402459 325.3832414 333.66909126 330.30395508 327.92089844 C333.9963754 323.73895471 338.05837627 319.90442787 342.0390625 316 C345.95269195 312.13170217 349.64181342 308.15966436 353.23193359 303.99072266 C356.27072186 300.56925351 359.54564115 297.38934674 362.8125 294.1875 C364.1338395 292.89169363 365.45294908 291.59360845 366.76953125 290.29296875 C367.62961792 289.45028442 367.62961792 289.45028442 368.50708008 288.59057617 C370.20957915 286.86435723 370.20957915 286.86435723 372 284 C372.66 284 373.32 284 374 284 C374.23630127 283.43700195 374.47260254 282.87400391 374.71606445 282.29394531 C376.29807106 279.4674509 378.22864009 277.56395401 380.54296875 275.296875 C381.45240234 274.39839844 382.36183594 273.49992187 383.29882812 272.57421875 C384.26134531 271.63243069 385.22423819 270.69102645 386.1875 269.75 C391.74947729 264.29166204 397.2246993 258.85907164 402.2902832 252.93457031 C406.18905322 248.5230533 410.48526291 244.47869528 414.68359375 240.35546875 C418.0688171 237.00697477 421.36445258 233.64339331 424.46875 230.03125 C429.11946199 224.62579389 434.24689496 219.706912 439.328125 214.7109375 C443.49684094 210.58475948 447.46665658 206.38132414 451.2890625 201.93359375 C454.79024328 197.97677986 458.62180043 194.3394738 462.39453125 190.64453125 C465.47207578 187.60521709 468.43974973 184.53930854 471.25 181.25 C476.49456358 175.1677221 482.31665153 169.62726783 488.02978516 163.99072266 C493.35943766 158.72608678 498.60038165 153.45250948 503.47070312 147.75195312 C505.84650345 145.03025084 508.41447254 142.5204612 511 140 C514.28673187 136.75784773 517.50758336 133.52049017 520.5 130 C523.49268831 126.47919023 526.71555272 123.24479096 530 120 C533.8870911 116.15514049 537.63297318 112.2705812 541.17578125 108.1015625 C543.01619953 105.98133758 544.92221717 103.93152597 546.84204102 101.88330078 C562.77394058 84.81597365 582.02571381 62.94335806 581.2421875 38.21875 C580.37497125 30.27393017 577.21317777 24.06443911 571 19 C559.23607931 11.24715106 546.79404075 8.87684404 533 7 C533 4.69 533 2.38 533 0 C601.31 0 669.62 0 740 0 C740 2.31 740 4.62 740 7 C738.72769531 7.14695312 737.45539062 7.29390625 736.14453125 7.4453125 C706.52257914 11.10715597 680.12637151 21.95109494 655 38 C653.37771484 39.03060547 653.37771484 39.03060547 651.72265625 40.08203125 C644.57941913 44.74306242 637.75698608 49.79906579 631 55 C630.18426514 55.62430908 630.18426514 55.62430908 629.35205078 56.26123047 C609.78154872 71.26810607 591.88885608 88.04222598 574.4375 105.4375 C573.50929443 106.36103271 572.58108887 107.28456543 571.62475586 108.23608398 C567.8438233 112.02593464 564.10413204 115.80490488 560.62890625 119.87890625 C555.09064288 126.33327333 548.87150071 132.18201227 542.82470703 138.15478516 C537.29373788 143.62410079 531.82470241 149.07718069 526.77539062 155.00195312 C522.04104488 160.3300452 516.81175187 165.22094618 511.73828125 170.22265625 C507.22722857 174.6946522 502.87768703 179.20592807 498.74707031 184.03027344 C495.38650557 187.81912703 491.73563198 191.32662029 488.125 194.875 C486.60449184 196.37008161 485.08614589 197.86736644 483.5703125 199.3671875 C482.57668701 200.34341064 482.57668701 200.34341064 481.56298828 201.33935547 C479.91455548 202.93142515 479.91455548 202.93142515 479 205 C479.53625 205.01417969 480.0725 205.02835938 480.625 205.04296875 C488.39132818 205.51559069 495.37185717 207.85275587 502.69628906 210.26318359 C505.13874759 211.04437688 507.59232276 211.77239055 510.0546875 212.48828125 C510.91787598 212.74005127 511.78106445 212.99182129 512.67041016 213.2512207 C514.32760068 213.73225452 515.98603891 214.20902185 517.64599609 214.68041992 C524.31560964 216.63540143 530.61414937 219.27229288 537 222 C538.89310341 222.77822205 540.78761678 223.55302396 542.68359375 224.32421875 C583.5435593 241.05372944 620.64092639 262.97806736 654 292 C655.10408203 292.95326172 655.10408203 292.95326172 656.23046875 293.92578125 C658.16463103 295.60514371 660.08282549 297.30128546 662 299 C662.89332031 299.77730469 663.78664063 300.55460937 664.70703125 301.35546875 C665.62871094 302.16628906 666.55039063 302.97710938 667.5 303.8125 C668.3559375 304.56144531 669.211875 305.31039063 670.09375 306.08203125 C672 308 672 308 672 310 C672.99 310.33 673.98 310.66 675 311 C676.54296875 312.56640625 676.54296875 312.56640625 678.1875 314.5625 C680.63770249 317.45959477 683.14636339 320.17645186 685.875 322.8125 C690.66540863 327.54763468 694.82707219 332.72082622 699 338 C700.12148437 339.39605469 700.12148437 339.39605469 701.265625 340.8203125 C745.17397756 396.50540863 770.2863937 462.31831133 780.75 532.0625 C780.86561279 532.80902832 780.98122559 533.55555664 781.1003418 534.32470703 C783.42006713 550.7230691 783.21370517 567.44426908 783.24023438 583.96533203 C783.24992853 587.59821582 783.28106036 591.23052947 783.3125 594.86328125 C783.40164871 614.49289503 781.70719934 633.60276359 777.5625 652.8125 C777.34787109 653.84109131 777.13324219 654.86968262 776.91210938 655.92944336 C776.48173548 657.98824609 776.04780008 660.04630836 775.60986328 662.10351562 C775.03999541 664.81004584 774.49676573 667.52016899 773.96484375 670.234375 C772.12046721 679.5527442 769.85041909 688.6116322 766.80419922 697.61865234 C766.22090651 699.34586457 765.6454188 701.07571892 765.07470703 702.80712891 C759.53828854 719.58797312 753.10312761 735.82543231 746 752 C742.21352797 750.26204439 740.39006413 748.3052917 737.8125 745 C733.98114544 740.14227592 729.91340173 735.67712834 725.5546875 731.2890625 C724 729 724 729 724.2890625 726.66943359 C724.991766 724.03091709 725.83500999 721.54597123 726.8203125 719 C727.18721191 718.04198486 727.55411133 717.08396973 727.93212891 716.09692383 C728.5226001 714.56394653 728.5226001 714.56394653 729.125 713 C739.48931118 685.5932996 747.4282273 657.97361046 751.578125 628.89550781 C751.98572271 626.09799112 752.44456553 623.31244951 752.90625 620.5234375 C757.78453564 588.4249765 757.21398676 553.01004637 752 521 C751.82307617 519.88947266 751.64615234 518.77894531 751.46386719 517.63476562 C740.44709975 450.16420027 712.04920267 383.12807375 665.265625 332.4765625 C663.37880336 330.41407126 661.54559182 328.32211842 659.71875 326.20703125 C656.04742649 322.00198247 652.19885327 318.00654522 648.25 314.0625 C647.5489917 313.36229736 646.8479834 312.66209473 646.12573242 311.94067383 C641.50592017 307.37488208 636.80045262 303.1386176 631.6875 299.12890625 C629.20357905 297.16126538 626.81205469 295.11208837 624.42651367 293.02709961 C616.72477608 286.33657185 608.54292182 280.56287618 600 275 C598.84830322 274.24614014 598.84830322 274.24614014 597.67333984 273.47705078 C582.99105314 263.93757761 567.68652971 255.75927399 552 248 C550.72817871 247.36650635 550.72817871 247.36650635 549.43066406 246.72021484 C527.65844706 236.00755377 504.01521723 227.77913285 480.5625 221.625 C479.45640381 221.33286621 478.35030762 221.04073242 477.21069336 220.73974609 C470.63188932 219.06520578 470.63188932 219.06520578 464 220 C461.90116658 221.83309563 461.90116658 221.83309563 460 224.25 C455.81016436 229.14047705 451.38892604 233.68309793 446.78125 238.18066406 C443.93712572 240.98056999 441.23651791 243.84117921 438.6328125 246.8671875 C434.13554496 252.07029864 429.21998103 256.82867695 424.31640625 261.64453125 C420.92599861 264.99815328 417.62568719 268.36756717 414.515625 271.984375 C410.65418878 276.47318416 406.47146009 280.60221286 402.25 284.75 C400.75284743 286.22156022 399.25796734 287.69543684 397.765625 289.171875 C396.78770996 290.1323877 396.78770996 290.1323877 395.79003906 291.11230469 C394.00315408 292.99667384 392.41124062 294.81802639 391 297 C391.99611853 301.56682036 395.09650591 305.09043719 397.875 308.75 C398.87637736 310.09142081 399.87632631 311.43390887 400.875 312.77734375 C401.39191406 313.4719873 401.90882813 314.16663086 402.44140625 314.88232422 C404.97265358 318.32155344 407.42365536 321.81608707 409.875 325.3125 C413.9955921 331.18006817 418.16396291 337.00952425 422.375 342.8125 C428.79604451 351.669512 435.06429517 360.62981241 441.32421875 369.60107422 C447.93184583 379.06006951 454.60216336 388.47107779 461.375 397.8125 C468.97279497 408.29613807 476.36897004 418.91840047 483.77050781 429.54101562 C490.01052858 438.49274061 496.27560033 447.42029571 502.6875 456.25 C507.18778381 462.44734461 511.5852876 468.70335853 515.90478516 475.02783203 C523.19160489 485.68959986 530.70002257 496.19723981 538.21557617 506.69848633 C541.45246841 511.22448037 544.66732816 515.76575819 547.875 520.3125 C548.63018921 521.38286499 548.63018921 521.38286499 549.40063477 522.47485352 C551.92705304 526.05706436 554.45107648 529.64094428 556.97265625 533.2265625 C562.07786622 540.47991688 567.22321278 547.69959742 572.4375 554.875 C577.46223393 561.79478501 582.31896514 568.81508137 587.12255859 575.88964844 C591.37282105 582.13018417 595.75584145 588.26416586 600.1953125 594.37109375 C603.83935017 599.38493835 607.43629332 604.42877438 611 609.5 C615.65753216 616.1242164 620.38185441 622.69722938 625.13354492 629.25415039 C629.41251723 635.16669048 633.62808081 641.12195671 637.82763672 647.09106445 C641.18460288 651.85804589 644.58851454 656.58742663 648.03125 661.29296875 C649.83728146 663.77626201 651.62227177 666.27352864 653.40039062 668.77685547 C664.6835384 684.65334211 676.37407748 700.21895261 688.22119141 715.67773438 C689.78980438 717.72558596 691.35474811 719.77615684 692.91796875 721.828125 C697.33186235 727.61179026 701.826466 733.3169244 706.4609375 738.92578125 C708.41389907 741.29036703 710.35489103 743.66308729 712.2890625 746.04296875 C718.53250982 753.70557685 724.86907556 761.20304958 731.61328125 768.4296875 C733.66948023 770.64405563 735.65919399 772.89330992 737.625 775.1875 C740.95866717 779.05650058 744.59163418 782.58530554 748.27734375 786.1171875 C750 788 750 788 750 790 C750.99 790.33 751.98 790.66 753 791 C754.71343165 792.61855107 756.37532017 794.29237856 758 796 C764.65122666 802.85553055 771.50614513 809.07807511 779 815 C780.07123058 815.87257203 781.14151088 816.74631172 782.2109375 817.62109375 C790.48253249 824.32798668 799.13877815 830.21920933 808.17138672 835.85302734 C809.65858267 836.78585065 811.13054413 837.742929 812.59765625 838.70703125 C847.48494726 861.04228105 891.28489853 868.32881735 931.48681641 859.59423828 C953.42447218 854.40711431 975.03984294 841.31858935 990.68359375 825.2421875 C993 823 993 823 995.0625 822.875 C997.71207061 824.41346035 999.14103759 826.59610266 1001 829 C987.75547918 842.74397577 974.23581723 853.96811293 958 864 C957.10667969 864.58265625 956.21335937 865.1653125 955.29296875 865.765625 C941.34932076 874.50337221 924.90178911 880.8690883 909 885 C908.01515625 885.26039063 907.0303125 885.52078125 906.015625 885.7890625 C903.01738481 886.5580412 900.01026072 887.27972955 897 888 C895.52853516 888.38671875 895.52853516 888.38671875 894.02734375 888.78125 C877.99033228 892.83612016 861.5874812 893.35270612 845.12182617 893.31567383 C842.19997771 893.3125135 839.27914652 893.3360965 836.35742188 893.36132812 C819.22103564 893.41890089 802.36333414 891.54328394 785.625 887.8125 C784.69276611 887.6060083 783.76053223 887.3995166 782.80004883 887.18676758 C765.21433942 883.1102603 748.20097405 876.93678861 732 869 C731.16903809 868.59410645 730.33807617 868.18821289 729.48193359 867.77001953 C707.25392993 856.79031964 687.24648266 842.69310744 668.234375 826.83984375 C666.03241154 824.98032238 666.03241154 824.98032238 663.703125 823.37890625 C663.14109375 822.92386719 662.5790625 822.46882813 662 822 C662 821.34 662 820.68 662 820 C661.41371826 819.73517822 660.82743652 819.47035645 660.22338867 819.19750977 C657.92459106 817.959385 656.31749135 816.63116374 654.42578125 814.83984375 C653.76247803 814.21537354 653.0991748 813.59090332 652.41577148 812.94750977 C651.3746521 811.95255493 651.3746521 811.95255493 650.3125 810.9375 C649.23947632 809.92030884 649.23947632 809.92030884 648.14477539 808.88256836 C641.14148585 802.22400238 634.23072884 795.56085031 627.9375 788.21875 C626.01416076 786.01621635 624.03939041 783.86724931 622.05029297 781.72412109 C617.2781151 776.57919346 612.72350439 771.323949 608.3203125 765.85546875 C605.29756539 762.13555607 602.19137597 758.48969333 599.06835938 754.85375977 C595.22746142 750.35171177 591.60868895 745.68919755 588 741 C587.38511719 740.20384277 586.77023437 739.40768555 586.13671875 738.58740234 C578.18003957 728.26704918 570.38288982 717.86951427 562.9296875 707.1796875 C559.82153534 702.72473955 556.63098686 698.33147532 553.4375 693.9375 C548.8919938 687.67112781 544.44781076 681.34611367 540.08251953 674.953125 C536.8688642 670.25010186 533.60590874 665.58498168 530.3125 660.9375 C525.50439941 654.15066585 520.74409319 647.33171837 516 640.5 C510.84143393 633.07297745 505.66121206 625.66258225 500.4375 618.28125 C496.60695603 612.86672433 492.80053729 607.43562208 489 602 C480.55282812 589.92519413 472.0915919 577.86521807 463.4375 565.9375 C458.94541315 559.74215802 454.54776572 553.49270788 450.22973633 547.17504883 C441.0185027 533.69999888 431.59825038 520.37713563 422.015625 507.1640625 C419.32599926 503.45522801 416.65787865 499.73162702 414 496 C410.1883541 490.6508966 406.34872535 485.32247969 402.5 480 C394.03399469 468.28613834 385.65498321 456.52017608 377.38525391 444.66674805 C372.9363042 438.30346373 368.4000662 432.00843886 363.83154297 425.73071289 C359.88630768 420.28576009 356.08203276 414.75515913 352.3125 409.1875 C347.95787359 402.75905773 343.42950098 396.5848269 338.625 390.484375 C334.58758262 385.2382637 330.95761546 379.68865791 327.2890625 374.18164062 C326.76054688 373.39466797 326.23203125 372.60769531 325.6875 371.796875 C324.98173828 370.73484863 324.98173828 370.73484863 324.26171875 369.65136719 C323.08354117 367.85876636 323.08354117 367.85876636 321 367 C321 367.66 321 368.32 321 369 C320.34 369 319.68 369 319 369 C318.76369873 369.56299805 318.52739746 370.12599609 318.28393555 370.70605469 C316.70192894 373.5325491 314.77135991 375.43604599 312.45703125 377.703125 C311.54759766 378.60160156 310.63816406 379.50007813 309.70117188 380.42578125 C308.73865469 381.36756931 307.77576181 382.30897355 306.8125 383.25 C301.27105147 388.68819172 295.81889463 394.10054012 290.7722168 400.00292969 C286.44319222 404.88120783 281.67359249 409.36074547 277.02734375 413.93359375 C273.39660828 417.52936227 269.82942643 421.12146956 266.5 425 C261.66867614 430.62812757 256.31002622 435.73436598 251.02734375 440.93359375 C246.70427439 445.21502841 242.56244428 449.56133087 238.59960938 454.17773438 C235.74703345 457.42737215 232.63583665 460.4079023 229.5390625 463.421875 C226.79397818 466.12338656 224.19840106 468.89082941 221.6875 471.8125 C216.97385802 477.26167733 211.80620585 482.24087814 206.671875 487.2890625 C202.67948715 491.2407117 198.81435088 495.1815994 195.31968689 499.58454895 C193.34483897 501.64092497 191.74268158 502.87792408 189.39430237 504.40483093 C183.36972974 508.70135118 178.89643562 513.21750011 177.14829636 520.59375381 C175.70673084 530.74938214 176.18213742 541.1641907 176.4132278 551.38684678 C176.50052995 555.94542574 176.50256559 560.50411402 176.51478577 565.06340027 C176.54687246 572.72783858 176.63298751 580.3900111 176.75854492 588.0534668 C176.93410523 598.77138311 177.01479275 609.48839349 177.07469356 620.20749629 C172.33951167 690.60433488 172.33951167 690.60433488 195 753 C204.01490375 759.71233546 213.30706489 760.26696195 224.10058594 758.69384766 C239.35420777 756.11679937 252.09084107 750.20400107 263 739 C263.62261719 738.40960937 264.24523437 737.81921875 264.88671875 737.2109375 C286.52826962 715.13169234 288.13828203 677.04751721 288.7097168 648.14038086 C288.73590088 646.84108643 288.76208496 645.54179199 288.7890625 644.203125 C288.80662598 643.05489258 288.82418945 641.90666016 288.84228516 640.72363281 C288.95534352 638.05433544 289.17905661 635.58390613 289.51983643 632.95140076 C290.26555143 625.57669595 290.01373239 618.19738556 289.88704109 610.79715347 C289.80458462 605.95452876 289.74185279 601.11162451 289.67581177 596.26875305 C289.66125985 595.23919483 289.64670794 594.2096366 289.63171506 593.14887965 C289.44882287 579.9009343 289.37491813 566.65212356 289.30102563 553.40319026 C289.22917898 540.52735904 289.12140508 527.65461187 288.89257812 514.78051758 C288.71054741 504.52854904 288.61146585 494.27949312 288.607602 484.02585715 C288.60264612 478.61251988 288.55840051 473.20648276 288.41357803 467.79493141 C287.47076722 431.02727188 287.47076722 431.02727188 297.77768075 419.44284147 C302.05912474 415.00266936 306.77561044 411.17627787 311.81370354 407.62098217 C314.09650846 406.18376117 314.09650846 406.18376117 315 404 C315.66 404 316.32 404 317 404 C317.33 403.01 317.66 402.02 318 401 C322.35578706 402.52905227 324.396726 405.87430203 326.9375 409.5 C327.64821655 410.49217529 327.64821655 410.49217529 328.37329102 411.50439453 C329.39271038 412.92803496 330.40879634 414.35406707 331.421875 415.78222656 C332.99785952 417.99699194 334.589631 420.19941901 336.1875 422.3984375 C342.01689369 430.42320285 347.77542882 438.49501418 353.48242188 446.60717773 C358.70462368 454.02041146 364.02059254 461.36483644 369.34130859 468.70751953 C371.02941284 471.04065154 372.71265712 473.37721738 374.39453125 475.71484375 C374.95664307 476.49545166 375.51875488 477.27605957 376.09790039 478.08032227 C377.14870979 479.53984015 378.19876281 480.99990313 379.24780273 482.46069336 C379.73837158 483.14139893 380.22894043 483.82210449 380.734375 484.5234375 C381.20816589 485.20573929 381.68195679 485.88804108 382.17010498 486.59101868 C383.96070309 489.06573009 383.96070309 489.06573009 386.25154114 491.22637939 C395.40591996 501.06767439 394.20841012 511.97578737 394.02734375 524.7734375 C394.0279212 527.13799505 394.03278057 529.50255493 394.04164124 531.86709595 C394.05491857 538.11039823 394.0164422 544.35227327 393.96496582 550.59533691 C393.89376365 560.39370518 393.90459612 570.19260507 393.90358353 579.99118805 C393.90275623 582.43165434 393.90039077 584.8721206 393.89649582 587.31258392 C393.87000554 605.67498607 394.19928075 624.00166391 394.87890625 642.3515625 C394.93781194 644.00581804 394.93781194 644.00581804 394.99790764 645.69349289 C395.39739538 656.64383847 395.94655444 667.56441638 396.94506836 678.47802734 C397.05637887 679.72534354 397.05637887 679.72534354 397.16993809 680.99785805 C397.70808923 686.44623095 398.70190527 691.68363052 400 697 C400.22300781 697.93328125 400.44601562 698.8665625 400.67578125 699.828125 C405.4751376 718.08334545 413.76384763 737.81382346 430.67236328 748.00830078 C446.06252731 756.75023668 461.57492687 759.57448271 479 761 C479 763.31 479 765.62 479 768 C320.6 768 162.2 768 -1 768 C-1 765.69 -1 763.38 -1 761 C0.07894531 760.91363281 1.15789063 760.82726563 2.26953125 760.73828125 C20.96233595 759.0626944 41.96434224 755.81373476 55.23046875 741.20703125 C81.79385232 708.07610031 76.44761558 653.86159152 76.36285591 614.13443875 C76.35297711 608.09806181 76.35743127 602.06170428 76.36136696 596.02532461 C76.36890384 583.69629469 76.36252732 571.36730996 76.34775543 559.03828812 C76.33315514 546.8372932 76.32446445 534.63631812 76.32357025 522.43531418 C76.32350916 521.67260938 76.32344806 520.90990458 76.32338512 520.12408752 C76.32315556 517.02718538 76.3229684 513.93028325 76.32283698 510.83338111 C76.32162902 482.68269026 76.3059939 454.53202691 76.28125 426.38134766 C76.25794928 399.86637153 76.24378089 373.35141208 76.24023438 346.83642578 C76.24012286 346.01904352 76.24001134 345.20166126 76.23989645 344.35950984 C76.23944756 341.06382317 76.23900557 337.7681365 76.23856402 334.47244983 C76.23834363 332.82970769 76.23812234 331.18696554 76.23790014 329.5442234 C76.23767878 327.90526251 76.23746001 326.26630163 76.23724384 324.62734074 C76.23372137 298.47061402 76.22226234 272.31389039 76.2094375 246.15716679 C76.2057294 238.5200321 76.20246178 230.88289761 76.20018864 223.24576235 C76.19536644 207.19936418 76.18820663 191.15297594 76.17204097 175.10658462 C76.16543218 168.47686054 76.16037387 161.84714299 76.15958023 155.21741486 C76.15878552 149.13440189 76.15330445 143.05141082 76.14426073 136.9684047 C76.14178051 134.78247159 76.14090765 132.59653585 76.14191952 130.41060157 C76.14601461 119.43509435 76.01147083 108.48370272 75.54590988 97.51701927 C75.50616813 96.57677109 75.46642637 95.6365229 75.42548032 94.66778234 C75.06773613 87.02284042 74.23093286 79.55792779 73 72 C72.80373737 70.62383308 72.60846465 69.24752471 72.4140625 67.87109375 C69.8100552 50.38761354 64.22322648 32.66212467 49.625 21.5 C34.30471239 11.41361424 17.99795684 8.44549398 0 8 C0 5.36 0 2.72 0 0 Z " fill="#2D2E29" transform="translate(678,555)"/>
<path d="M0 0 C2.05078125 0.03255208 4.1015625 0.06510417 6.15234375 0.09765625 C6.49845703 1.29261719 6.49845703 1.29261719 6.8515625 2.51171875 C9.82098936 12.15942184 13.35021027 17.69148589 22.2265625 22.71484375 C39.83369622 31.03650642 59.48348505 30.38988959 78.47343445 30.35835266 C81.05410221 30.3613758 83.63476908 30.36526609 86.21543437 30.36994523 C91.81114059 30.37867273 97.40681019 30.38003168 103.00252151 30.37644196 C111.32402943 30.37111778 119.64550213 30.37724747 127.96700622 30.38552489 C143.69686055 30.40074203 159.42669874 30.40247228 175.15655889 30.40000186 C187.30661774 30.39816705 199.45667132 30.39993275 211.60672951 30.4042263 C213.35419773 30.40482871 215.10166596 30.40542991 216.84913418 30.40602991 C219.48262499 30.40693719 222.11611579 30.40784586 224.74960659 30.40876226 C249.22591996 30.41718848 273.70223134 30.4215298 298.17854595 30.41735554 C299.1007131 30.41719916 300.02288025 30.41704279 300.97299186 30.41688167 C305.64656885 30.41607593 310.32014584 30.41523015 314.99372282 30.41436837 C315.92185754 30.41419728 316.84999227 30.41402619 317.80625228 30.41384992 C319.68316523 30.41350326 321.56007817 30.41315473 323.43699111 30.41280433 C352.6353335 30.40744832 381.83364567 30.41537552 411.03198242 30.43383789 C443.86113125 30.45457191 476.69026137 30.46527789 509.51941711 30.4612624 C513.02257112 30.46086708 516.52572514 30.46050553 520.02887917 30.46016502 C520.89139932 30.46007429 521.75391948 30.45998356 522.64257662 30.45989008 C535.64130518 30.45872599 548.6400148 30.46535811 561.63873863 30.47597694 C576.4296033 30.48804772 591.22042634 30.48956634 606.01129165 30.47718678 C614.27910954 30.4705758 622.54682779 30.47214838 630.81463764 30.48577529 C637.00241192 30.49503515 643.19007744 30.48845967 649.37784383 30.47592749 C651.87034442 30.47328424 654.36285675 30.4756353 656.85534581 30.48366336 C690.03648541 30.95133178 690.03648541 30.95133178 719.57421875 17.7578125 C724.55343951 12.51977086 726.77416528 7.11383755 728.15234375 0.09765625 C731.12234375 0.09765625 734.09234375 0.09765625 737.15234375 0.09765625 C743.01171875 20.60546875 743.01171875 20.60546875 744.08325195 24.3581543 C744.79108829 26.83404587 745.50053849 29.30947667 746.21166992 31.78442383 C747.94922407 37.83848894 749.65422601 43.89786621 751.28173828 49.98242188 C753.86919263 59.65162225 756.65461586 69.24526581 759.61645508 78.80639648 C761.52701263 84.98135922 763.33357869 91.18047347 765.09912109 97.3984375 C766.17781276 101.18711067 767.27120181 104.97134959 768.37109375 108.75390625 C768.55819916 109.39763184 768.74530457 110.04135742 768.93807983 110.70458984 C769.50925321 112.66901753 770.0807418 114.63335323 770.65234375 116.59765625 C771.22390291 118.56181225 771.79534901 120.52600069 772.36637878 122.49031067 C772.74373462 123.7883323 773.12142894 125.08625557 773.49946594 126.38407898 C774.40488009 129.49805966 775.29734005 132.61494504 776.17260742 135.73754883 C778.35411242 143.51758748 780.7608613 151.1709331 783.46484375 158.78515625 C783.81740234 159.82220703 784.16996094 160.85925781 784.53320312 161.92773438 C787.51204213 170.31786823 791.28303951 180.18313997 799.15234375 185.09765625 C802.02394025 185.76555989 802.02394025 185.76555989 805.15234375 185.09765625 C806.22447163 184.30389577 807.26415948 183.46539557 808.27734375 182.59765625 C812.39175043 179.38127152 816.25453519 179.44694236 821.33984375 179.67578125 C825.1734954 180.250829 827.34742347 181.43657804 830.15234375 184.09765625 C834.0333783 189.55916029 834.04487677 194.59732146 833.15234375 201.09765625 C831.47597373 205.5966322 829.50517607 208.26750915 825.40234375 210.78515625 C819.3083374 213.24619728 812.16009006 213.16326104 805.81640625 211.4765625 C803.74594261 210.5258394 802.00774918 209.41968024 800.15234375 208.09765625 C799.04052734 207.38029297 799.04052734 207.38029297 797.90625 206.6484375 C786.43550284 198.48126552 778.56880875 185.52070964 770.98046875 173.8671875 C767.8703895 169.15555035 764.52458723 164.62374271 761.15234375 160.09765625 C760.61222656 159.36160156 760.07210937 158.62554687 759.515625 157.8671875 C748.12645264 142.7275855 734.10869779 128.67864634 719.15234375 117.09765625 C718.58596191 116.6495459 718.01958008 116.20143555 717.43603516 115.73974609 C706.58711567 107.1702307 695.16610837 99.92238841 683.15234375 93.09765625 C682.06783936 92.47697266 682.06783936 92.47697266 680.96142578 91.84375 C666.68377621 83.74428298 651.50433337 77.82432045 636.15234375 72.09765625 C634.73695313 71.53304687 634.73695313 71.53304687 633.29296875 70.95703125 C608.16319868 61.31263301 580.81987992 57.06426335 554.27734375 53.34765625 C553.04105225 53.17411621 553.04105225 53.17411621 551.77978516 52.99707031 C535.98493467 50.91053917 520.18835302 50.89242014 504.28515625 50.78125 C501.79409469 50.76064308 499.30303634 50.73964573 496.8119812 50.71827698 C490.29871232 50.66344194 483.78541393 50.61386478 477.27209473 50.56542969 C470.60845322 50.51493059 463.94485494 50.45939377 457.28125 50.40429688 C444.23831758 50.29718804 431.19534903 50.19546937 418.15234375 50.09765625 C418.15614095 50.92331915 418.15993816 51.74898206 418.16385043 52.59966505 C418.38762518 101.53380934 418.55920603 150.46789937 418.66299704 199.40245291 C418.67550413 205.27790566 418.68844735 211.15335738 418.70166016 217.02880859 C418.70428326 218.19850648 418.70690636 219.36820437 418.70960896 220.57334764 C418.75312367 239.51367568 418.83197009 258.45370023 418.92387171 277.39384823 C419.01738314 296.82783084 419.07293069 316.26165451 419.0932287 335.69585288 C419.10695094 347.68824399 419.15029138 359.67977733 419.23150842 371.6719044 C419.28436373 379.89509847 419.30034597 388.11784903 419.28735752 396.34120063 C419.28095121 401.08620219 419.29077644 405.82970492 419.3443985 410.57444 C419.39317017 414.92178498 419.3954598 419.26662797 419.3613327 423.61408968 C419.35711722 425.18362134 419.36972216 426.75331093 419.40117557 428.32253306 C419.62211015 440.02912937 419.62211015 440.02912937 415.97200465 445.16623235 C413.47792841 447.6702353 410.8959571 449.87542631 408.15234375 452.09765625 C406.92335158 453.4343201 405.71826663 454.79417656 404.55859375 456.19140625 C400.15195884 461.33076031 395.29542571 466.00185661 390.46875 470.7421875 C387.09389553 474.0804251 383.80759748 477.43233164 380.71484375 481.03515625 C375.85778687 486.68044407 370.48369046 491.81103856 365.1796875 497.03125 C360.85661814 501.31268466 356.71478803 505.65898712 352.75195312 510.27539062 C350.34652073 513.01564511 347.76191766 515.55372114 345.15234375 518.09765625 C341.92824211 521.27820901 338.76157493 524.44484718 335.83984375 527.91015625 C332.1600579 532.15355087 328.24185989 536.1220415 324.27734375 540.09765625 C323.2577356 541.12403198 323.2577356 541.12403198 322.2175293 542.17114258 C321.57984619 542.80689209 320.94216309 543.4426416 320.28515625 544.09765625 C319.41721436 544.96390625 319.41721436 544.96390625 318.53173828 545.84765625 C317.15234375 547.09765625 317.15234375 547.09765625 316.15234375 547.09765625 C316.15234375 383.08765625 316.15234375 219.07765625 316.15234375 50.09765625 C241.82353084 48.75663827 241.82353084 48.75663827 166.71484375 55.34765625 C165.42900391 55.56309082 164.14316406 55.77852539 162.81835938 56.00048828 C139.15004504 60.03078436 115.55513301 65.31393173 93.15234375 74.09765625 C92.32758545 74.42064697 91.50282715 74.7436377 90.65307617 75.07641602 C49.66153275 91.32971916 9.22817649 115.31382656 -18.59375 150.296875 C-20.04681665 152.10250548 -21.53705445 153.87913576 -23.0703125 155.6171875 C-29.83462368 163.33008322 -35.38936514 171.69411229 -40.96313477 180.29370117 C-49.76545796 193.79895163 -58.97943725 206.80824992 -74.84765625 212.09765625 C-80.6173238 212.56754907 -85.97151121 212.90171841 -91.34765625 210.59765625 C-96.04715997 205.89815253 -99.11214948 201.79598365 -99.41015625 194.97265625 C-99.15497337 190.35101067 -97.95409976 187.62388943 -94.84765625 184.09765625 C-93.85765625 182.92203125 -93.85765625 182.92203125 -92.84765625 181.72265625 C-88.02026815 179.10782103 -83.20546323 179.23556231 -77.84765625 180.09765625 C-75.76398281 181.20460777 -74.15359103 182.44512911 -72.35546875 183.9609375 C-70.74481487 185.33615109 -70.74481487 185.33615109 -67.84765625 185.78515625 C-62.14849778 184.4790991 -59.21816747 181.25621142 -56.12890625 176.390625 C-47.10383518 159.42759369 -42.17861557 140.4468842 -37.390625 121.953125 C-36.22539535 117.46527834 -34.95834742 113.02292732 -33.60473633 108.58862305 C-32.8052443 105.95811122 -32.03429 103.3204987 -31.26953125 100.6796875 C-28.03695245 89.52415922 -24.75324473 78.3879478 -21.33300781 67.28833008 C-17.37651925 54.40587924 -13.81726821 41.41373715 -10.28515625 28.41015625 C-9.89526369 26.97719139 -9.50528997 25.54424861 -9.11523438 24.11132812 C-8.92458405 23.41063202 -8.73393372 22.70993591 -8.5375061 21.98800659 C-8.16263187 20.61074556 -7.7874559 19.23356662 -7.41195679 17.85647583 C-6.57786851 14.79523692 -5.75086688 11.7324751 -4.93798828 8.66552734 C-4.67228027 7.66730957 -4.40657227 6.6690918 -4.1328125 5.640625 C-3.79262085 4.34741333 -3.79262085 4.34741333 -3.44555664 3.02807617 C-2.54941873 0.13474729 -2.54941873 0.13474729 0 0 Z " fill="#2D2E29" transform="translate(652.84765625,344.90234375)"/>
<path d="M0 0 C0.94203983 6.31297524 1.86030107 12.78257567 0 19 C-3.46036475 23.62375255 -8.89487151 26.13749846 -13.88867188 28.81445312 C-16.98662521 30.55400694 -19.64314185 32.61389334 -22.4375 34.8125 C-23.20960815 35.4154187 -23.20960815 35.4154187 -23.99731445 36.03051758 C-25.67276387 37.34403925 -27.33751798 38.67010677 -29 40 C-29.65081543 40.51933105 -30.30163086 41.03866211 -30.97216797 41.57373047 C-44.73078602 52.60187623 -57.50237732 64.44671791 -70 76.875 C-70.69416016 77.56440674 -71.38832031 78.25381348 -72.10351562 78.96411133 C-76.60440171 83.47967422 -80.86918874 88.14431374 -85 93 C-85.50805176 93.59603027 -86.01610352 94.19206055 -86.53955078 94.80615234 C-106.70105036 118.69321795 -123.05853722 145.07913111 -137 173 C-137.34224609 173.67659668 -137.68449219 174.35319336 -138.03710938 175.05029297 C-155.92250759 210.60181212 -166.45067153 250.56553681 -171 290 C-171.09498779 290.79865479 -171.18997559 291.59730957 -171.2878418 292.42016602 C-172.27423478 302.16222151 -172.18607711 311.94126592 -172.18530273 321.72241211 C-172.18746805 324.76756227 -172.20561613 327.81233649 -172.22460938 330.85742188 C-172.28013097 349.66193927 -171.04726425 368.24199971 -167.625 386.75 C-167.40368408 387.97823486 -167.18236816 389.20646973 -166.9543457 390.47192383 C-166.31515171 393.98368743 -165.65917242 397.49194217 -165 401 C-164.75660889 402.34553955 -164.75660889 402.34553955 -164.50830078 403.71826172 C-159.22047807 432.84510836 -148.67614927 461.32452456 -136 488 C-135.67563965 488.68723145 -135.3512793 489.37446289 -135.01708984 490.08251953 C-127.28766738 506.3459289 -118.40672571 522.29932801 -108 537 C-107.5457666 537.6496875 -107.0915332 538.299375 -106.62353516 538.96875 C-92.30272338 559.41514664 -76.20508683 577.81514752 -58.625 595.5 C-57.98320801 596.14654541 -57.34141602 596.79309082 -56.68017578 597.45922852 C-52.28378535 601.84029458 -47.72188757 605.97308393 -43 610 C-42.04262939 610.81742676 -42.04262939 610.81742676 -41.06591797 611.65136719 C6.93010865 652.31281535 67.01711131 686.39027776 129.14892578 699.16186523 C132.77732063 699.95153682 136.31429525 700.89648361 139.88671875 701.90625 C147.5087931 703.98921318 155.17990852 705.43113709 162.97436523 706.70043945 C165.14318916 707.05525091 167.30879486 707.42614327 169.47460938 707.79882812 C191.94152629 711.58122739 214.30937171 713.49576103 237.09204102 713.33618164 C240.69765501 713.31243311 244.30252953 713.31568014 247.90820312 713.32226562 C269.98737202 713.29761125 291.74616625 711.68912367 313.5625 708.3125 C314.40120636 708.18505402 315.23991272 708.05760803 316.10403442 707.92630005 C337.72176409 704.62411698 359.59620218 700.66805139 380.41162109 693.84619141 C383.05015328 692.98360392 385.69531969 692.14300086 388.34098816 691.3026123 C432.31224161 677.28680686 474.18062112 658.38848648 512.578125 632.625 C515.01449145 630.99027671 517.46025851 629.37027462 519.90625 627.75 C529.80678057 621.13773229 539.1607167 614.0806112 548.28076172 606.43115234 C550.67721216 604.4362656 553.12389311 602.50548428 555.5625 600.5625 C561.39790845 595.78887264 566.85019497 590.62324923 572.328125 585.44921875 C576.42519221 581.58226373 580.61526335 577.826448 584.828125 574.0859375 C586.82000677 572.17287119 588.4244275 570.26104884 590 568 C594.46093396 568.49653505 596.444372 569.96165364 599.625 573.0625 C604.75557372 577.88400301 610.23234029 581.97579636 616 586 C615.51025171 590.29883174 613.01508068 592.35773744 610.0390625 595.32421875 C609.53386078 595.82991898 609.02865906 596.3356192 608.50814819 596.85664368 C607.43398812 597.92846401 606.3561352 598.99659428 605.27490234 600.0612793 C603.65691667 601.65604144 602.05227806 603.26329783 600.44921875 604.87304688 C593.95047992 611.35340127 587.18589953 617.27923705 580 623 C578.92195384 623.91171989 577.84907278 624.82964318 576.78515625 625.7578125 C532.80552165 663.9954862 479.73364233 692.5523713 424.99804688 711.93164062 C422.29642701 712.8943677 419.60784662 713.88526132 416.921875 714.890625 C392.32690593 723.98653173 366.76357336 729.47005839 341 734 C340.07654785 734.16338867 339.1530957 734.32677734 338.20166016 734.49511719 C328.56967651 736.17303174 318.89070366 737.43498446 309.1875 738.625 C307.68437256 738.81002075 307.68437256 738.81002075 306.15087891 738.9987793 C303.10279697 739.35927024 300.05348977 739.68869029 297 740 C296.02893311 740.10006348 295.05786621 740.20012695 294.05737305 740.30322266 C282.7348763 741.28854852 271.38231238 741.15054332 260.02612305 741.13037109 C256.46984521 741.12504841 252.91369569 741.13032213 249.35742188 741.13671875 C229.43521843 741.14495526 209.80215772 740.60640682 190.0625 737.8125 C189.27762207 737.70362457 188.49274414 737.59474915 187.68408203 737.48257446 C125.26484885 728.78109883 65.04962858 708.59437177 11 676 C10.28602051 675.57267578 9.57204102 675.14535156 8.83642578 674.70507812 C-6.48994753 665.49128653 -20.95752103 655.05632597 -35 644 C-35.82371094 643.35933594 -36.64742187 642.71867187 -37.49609375 642.05859375 C-48.35499291 633.5176862 -58.68158306 624.32346282 -68.8125 614.9375 C-69.50037598 614.30642334 -70.18825195 613.67534668 -70.89697266 613.02514648 C-71.53554199 612.42774658 -72.17411133 611.83034668 -72.83203125 611.21484375 C-73.67858276 610.42775024 -73.67858276 610.42775024 -74.54223633 609.62475586 C-76.11858876 607.86782646 -76.95850988 606.104207 -78 604 C-79.31415162 603.29627581 -80.64933695 602.63081815 -82 602 C-83.60546875 600.40625 -83.60546875 600.40625 -85.1875 598.5 C-87.81129795 595.39155147 -90.49187139 592.36502852 -93.25 589.375 C-98.34943853 583.72146288 -103.00829093 577.7628393 -107.65332031 571.73632812 C-108.8983024 570.13112279 -110.16315465 568.54138163 -111.4296875 566.953125 C-123.78475445 551.31687634 -134.35877627 534.41771441 -144 517 C-144.41169434 516.26700684 -144.82338867 515.53401367 -145.24755859 514.77880859 C-162.83841778 483.32426236 -175.08050089 449.07523432 -183 414 C-183.20318848 413.14132324 -183.40637695 412.28264648 -183.61572266 411.39794922 C-184.97806825 405.63143845 -186.06237671 399.85014487 -187 394 C-187.27287842 392.3303418 -187.27287842 392.3303418 -187.55126953 390.62695312 C-193.65658273 351.466246 -193.75580761 310.06880803 -187 271 C-186.71116943 269.25831543 -186.71116943 269.25831543 -186.41650391 267.48144531 C-178.50203859 220.44426384 -160.97562191 173.14061975 -135 133 C-134.47647949 132.18934082 -133.95295898 131.37868164 -133.41357422 130.54345703 C-126.36315963 119.6842664 -119.130903 109.08066035 -111 99 C-109.86304688 97.57494141 -109.86304688 97.57494141 -108.703125 96.12109375 C-104.40468776 90.79251379 -99.95510504 85.6347988 -95.3359375 80.58203125 C-94.05966144 79.17129802 -92.78981704 77.75420123 -91.5534668 76.30834961 C-86.78939322 70.74873025 -81.69794566 65.54476362 -76.51196289 60.3815918 C-75.06475615 58.93974779 -73.62297974 57.49262884 -72.18164062 56.04492188 C-66.9584088 50.81760573 -61.63786872 45.77810747 -56 41 C-55.01257813 40.14277344 -54.02515625 39.28554688 -53.0078125 38.40234375 C-8.09350238 0 -8.09350238 0 0 0 Z " fill="#2D2D28" transform="translate(734,825)"/>
<path d="M0 0 C7.3425 -0.061875 14.685 -0.12375 22.25 -0.1875 C25.68841309 -0.22846802 25.68841309 -0.22846802 29.19628906 -0.27026367 C43.46024777 -0.37003783 58.31956989 -0.18641024 69.84765625 9.5625 C75.1924018 15.23554687 77.10181932 21.76015793 77.4375 29.4375 C77.18597931 36.36399293 75.61013721 42.14082217 70.87109375 47.33203125 C62.48468468 55 62.48468468 55 57 55 C62.63655529 63.0452351 68.39011863 70.93539896 74.5949707 78.55517578 C78 82.78945376 78 82.78945376 78 85 C65.2504979 86.66297854 65.2504979 86.66297854 60.3515625 83.04296875 C57.06971672 78.99693866 54.38908977 74.95044846 52.2890625 70.1875 C50.18190479 65.9023832 48.29269041 62.36594747 44 60 C34.20135823 57.93235771 23.9373647 58.56250596 14 59 C14 67.58 14 76.16 14 85 C9.38 85 4.76 85 0 85 C0 56.95 0 28.9 0 0 Z " fill="#2E2D29" transform="translate(665,1674)"/>
<path d="M0 0 C1.39456452 0.00667256 2.78911118 0.01863093 4.18359375 0.03515625 C5.2499707 0.04192383 5.2499707 0.04192383 6.33789062 0.04882812 C8.09899388 0.06064761 9.86005411 0.07858362 11.62109375 0.09765625 C19.66878747 15.54439786 27.62688167 31.0281815 35.37930298 46.62533569 C39.65839868 55.2312628 44.00993858 63.79095013 48.56567383 72.25439453 C50.81797976 76.45969664 52.80342249 80.68577695 54.62109375 85.09765625 C52.18241207 85.20564215 49.74850242 85.28492214 47.30859375 85.34765625 C46.61830078 85.38117188 45.92800781 85.4146875 45.21679688 85.44921875 C43.1953125 85.48828125 43.1953125 85.48828125 39.62109375 85.09765625 C36.62109375 81.09765625 36.62109375 81.09765625 29.62109375 66.09765625 C12.79109375 65.76765625 -4.03890625 65.43765625 -21.37890625 65.09765625 C-22.03890625 67.07765625 -22.69890625 69.05765625 -23.37890625 71.09765625 C-23.92310452 72.32813712 -24.49473444 73.54724492 -25.10546875 74.74609375 C-25.38471191 75.29958496 -25.66395508 75.85307617 -25.95166016 76.42333984 C-26.29890137 77.09961426 -26.64614258 77.77588867 -27.00390625 78.47265625 C-28.11765625 80.65890625 -29.23140625 82.84515625 -30.37890625 85.09765625 C-35.32890625 85.09765625 -40.27890625 85.09765625 -45.37890625 85.09765625 C-37.88547667 67.78556798 -29.44965887 50.96495159 -20.98522949 34.11468506 C-19.49093935 31.13706916 -18.00123857 28.15716752 -16.51157379 25.1772356 C-15.07372704 22.30181283 -13.63380668 19.42743283 -12.19316101 16.55341148 C-11.50689449 15.18405766 -10.82111014 13.81446208 -10.13581848 12.44462013 C-9.18826161 10.55166124 -8.23809182 8.66003858 -7.28710938 6.76879883 C-6.47844421 5.1571862 -6.47844421 5.1571862 -5.65344238 3.51301575 C-3.85854142 0.11151854 -3.85854142 0.11151854 0 0 Z " fill="#302F2B" transform="translate(1442.37890625,1673.90234375)"/>
<path d="M0 0 C5.28 0 10.56 0 16 0 C25.94381714 19.88763428 35.88763428 39.77526855 45.83145142 59.66290283 C46.37910691 60.75809298 46.37910691 60.75809298 46.93782616 61.87540817 C47.6440622 63.28804045 48.35004532 64.7007992 49.05574989 66.11369705 C50.65082298 69.30654092 52.2495022 72.49741864 53.85906982 75.6829834 C54.41008362 76.77598755 54.96109741 77.8689917 55.52880859 78.99511719 C56.00933685 79.94457214 56.48986511 80.8940271 56.98495483 81.87225342 C58 84 58 84 58 85 C53.05 85 48.1 85 43 85 C41.67933245 82.60835832 40.36838208 80.21219784 39.0625 77.8125 C38.68931641 77.13896484 38.31613281 76.46542969 37.93164062 75.77148438 C37.57392578 75.11083984 37.21621094 74.45019531 36.84765625 73.76953125 C36.51773682 73.16729736 36.18781738 72.56506348 35.84790039 71.94458008 C35 70 35 70 34 65 C8.755 65.495 8.755 65.495 -17 66 C-21.455 75.405 -21.455 75.405 -26 85 C-30.95 85 -35.9 85 -41 85 C-38.75034142 78.25102426 -38.75034142 78.25102426 -37.09570312 74.98022461 C-36.72737366 74.24690414 -36.35904419 73.51358368 -35.97955322 72.75804138 C-35.58411316 71.98066116 -35.1886731 71.20328094 -34.78125 70.40234375 C-34.1598111 69.16781212 -34.1598111 69.16781212 -33.52581787 67.90834045 C-32.64293249 66.15493685 -31.7583449 64.40238947 -30.87219238 62.65063477 C-28.57775697 58.1140169 -26.29638688 53.57084771 -24.015625 49.02734375 C-23.57160339 48.14323822 -23.12758179 47.25913269 -22.67010498 46.34823608 C-19.05818568 39.14413891 -15.55273038 31.89685719 -12.12329102 24.60400391 C-8.54724825 17.00257268 -4.79227602 9.4954385 -1 2 C-0.67 1.34 -0.34 0.68 0 0 Z " fill="#2F2E2A" transform="translate(562,1674)"/>
<path d="M0 0 C4.95 0 9.9 0 15 0 C23.68810802 16.50218272 32.12267638 33.11950856 40.4375 49.8125 C41.59290702 52.12835098 42.74850533 54.44410653 43.90429688 56.75976562 C46.0160673 60.99135893 48.12675058 65.22349023 50.23608398 69.45629883 C52.8194818 74.63982521 55.40884387 79.82034777 58 85 C52.72 85 47.44 85 42 85 C39.03 78.73 36.06 72.46 33 66 C16.17 65.67 -0.66 65.34 -18 65 C-18.99 67.97 -19.98 70.94 -21 74 C-22.84466461 77.77460568 -24.9182458 81.34536485 -27 85 C-31.62 85 -36.24 85 -41 85 C-39.60593424 80.81780271 -38.3108599 77.39034162 -36.34765625 73.53515625 C-35.82429687 72.50003906 -35.3009375 71.46492188 -34.76171875 70.3984375 C-34.20097656 69.29757812 -33.64023437 68.19671875 -33.0625 67.0625 C-28.78073811 58.58423255 -24.56545494 50.08413785 -20.5 41.5 C-14.92155162 29.73778666 -9.09954118 18.10294215 -3.24584961 6.47583008 C-2.16048869 4.31893313 -1.0798345 2.15966901 0 0 Z " fill="#2F2E29" transform="translate(824,1674)"/>
<path d="M0 0 C12 0 12 0 15.55078125 2.5625 C16.50647514 3.67920843 17.42693743 4.82689836 18.3125 6 C19.06164673 6.89803345 19.06164673 6.89803345 19.82592773 7.81420898 C20.80920725 8.99692501 21.77873208 10.19124645 22.73242188 11.39794922 C24.27544523 13.34812628 25.90768241 15.20674028 27.5625 17.0625 C28.09230469 17.67480469 28.62210938 18.28710938 29.16796875 18.91796875 C31.99864261 22.13491793 34.90767016 25.2797068 37.80834961 28.43334961 C42.24237809 33.25604828 46.62436405 38.12429137 51 43 C51.763125 43.845625 52.52625 44.69125 53.3125 45.5625 C54.075625 46.408125 54.83875 47.25375 55.625 48.125 C56.29789063 48.87007812 56.97078125 49.61515625 57.6640625 50.3828125 C60.80215771 53.89873857 63.89667676 57.45334487 67 61 C67.33 40.87 67.66 20.74 68 0 C72.95 0 77.9 0 83 0 C83 28.05 83 56.1 83 85 C70 85 70 85 66.1328125 82.21875 C65.09224683 81.01085719 64.08902506 79.76981796 63.125 78.5 C62.62226562 77.89929687 62.11953125 77.29859375 61.6015625 76.6796875 C60.57186718 75.44510382 59.55684462 74.19814818 58.55615234 72.93994141 C53.41807613 66.53467727 47.77567324 60.57504666 42.125 54.625 C37.0294015 49.23518892 31.96586393 43.83018566 27.0390625 38.28515625 C25.52812746 36.59186698 23.99923971 34.91455999 22.4609375 33.24609375 C21.62820313 32.33988281 20.79546875 31.43367188 19.9375 30.5 C19.18339844 29.6853125 18.42929688 28.870625 17.65234375 28.03125 C16 26 16 26 16 24 C15.34 24 14.68 24 14 24 C14 44.13 14 64.26 14 85 C9.38 85 4.76 85 0 85 C0 56.95 0 28.9 0 0 Z " fill="#302E2A" transform="translate(1543,1674)"/>
<path d="M0 0 C12 0 12 0 15.19140625 2.203125 C15.97386719 3.20859375 16.75632812 4.2140625 17.5625 5.25 C18.46382456 6.35499878 19.36620012 7.45914097 20.26953125 8.5625 C20.71635254 9.13226562 21.16317383 9.70203125 21.62353516 10.2890625 C23.86103159 13.07025707 26.31120046 15.64604945 28.75 18.25 C32.26895869 22.07376001 35.72170937 25.94812619 39.125 29.875 C41.54550175 32.61823531 44.02205946 35.30879579 46.5 38 C50.73993314 42.60632061 54.89381607 47.27401472 59 52 C61.64 54.97 64.28 57.94 67 61 C67.33 40.87 67.66 20.74 68 0 C72.62 0 77.24 0 82 0 C82 28.05 82 56.1 82 85 C70 85 70 85 67.10546875 83.3125 C66.47253906 82.549375 65.83960938 81.78625 65.1875 81 C64.465625 80.16984375 63.74375 79.3396875 63 78.484375 C62.34 77.66453125 61.68 76.8446875 61 76 C59.89955845 74.74671934 58.79555134 73.49655776 57.6875 72.25 C56.85798828 71.28320312 56.85798828 71.28320312 56.01171875 70.296875 C53.39719915 67.31175359 50.69961361 64.40807318 48 61.5 C44.16930648 57.36880228 40.38736443 53.20889306 36.69921875 48.94921875 C34.69764242 46.65315763 32.66364306 44.38820959 30.625 42.125 C29.87476563 41.29097656 29.12453125 40.45695312 28.3515625 39.59765625 C26.72977304 37.80614464 25.09898846 36.02274902 23.4609375 34.24609375 C22.64882813 33.36050781 21.83671875 32.47492188 21 31.5625 C19.88625 30.35787109 19.88625 30.35787109 18.75 29.12890625 C17 27 17 27 16 24 C15.34 24 14.68 24 14 24 C14 44.13 14 64.26 14 85 C9.38 85 4.76 85 0 85 C0 56.95 0 28.9 0 0 Z " fill="#2F2E2A" transform="translate(927,1674)"/>
<path d="M0 0 C4.95 0 9.9 0 15 0 C15 11.88 15 23.76 15 36 C32.16 36 49.32 36 67 36 C67 24.12 67 12.24 67 0 C71.62 0 76.24 0 81 0 C81 28.05 81 56.1 81 85 C76.38 85 71.76 85 67 85 C67 72.79 67 60.58 67 48 C49.84 48 32.68 48 15 48 C15 60.54 15 73.08 15 86 C10.05 86 5.1 86 0 86 C0 57.62 0 29.24 0 0 Z " fill="#34332E" transform="translate(1270,1674)"/>
<path d="M0 0 C4.62 0 9.24 0 14 0 C14 15.18 14 30.36 14 46 C20.79964129 40.05127339 20.79964129 40.05127339 27.5 34 C27.99209961 33.54850586 28.48419922 33.09701172 28.99121094 32.63183594 C34.10551561 27.92667564 39.16687193 23.16473478 44.21679688 18.390625 C48.13877872 14.69560048 52.13084588 11.1106145 56.22949219 7.61206055 C57.97059555 6.02677297 59.4724595 4.35119802 61 2.5625 C65.60395531 -1.52147918 71.97521214 -0.47577491 77.74609375 -0.2109375 C78.81988281 -0.14132812 79.89367188 -0.07171875 81 0 C81 0.66 81 1.32 81 2 C79.54882812 3.44750977 79.54882812 3.44750977 77.53125 5.12890625 C73.05696252 8.93461072 68.76977387 12.90493579 64.5 16.9375 C63.43845703 17.93426758 63.43845703 17.93426758 62.35546875 18.95117188 C58.07185919 22.98810191 53.87427939 27.09535956 49.74414062 31.28930664 C47.62429246 33.36850262 45.37448547 35.2191359 43 37 C43.44583523 41.41589177 46.4437787 43.96368778 49.375 47 C50.47556275 48.16507907 51.57581662 49.33044998 52.67578125 50.49609375 C53.23346191 51.08245605 53.79114258 51.66881836 54.36572266 52.27294922 C56.79589203 54.84107264 59.17982355 57.45038705 61.5625 60.0625 C64.35616166 63.1149089 67.15121786 66.16579071 69.95703125 69.20703125 C70.44550537 69.7373999 70.93397949 70.26776855 71.43725586 70.81420898 C72.78802999 72.28058681 74.14006555 73.74580238 75.4921875 75.2109375 C83 83.56074766 83 83.56074766 83 85 C76.58167945 86.2153503 69.59966499 87.37973276 63.86621094 83.58935547 C59.43092418 79.63087804 55.71970834 75.0294879 51.99365234 70.41308594 C48.74216538 66.47753644 45.20932732 62.81739038 41.6875 59.125 C40.46122634 57.81605268 39.23589043 56.50622588 38.01171875 55.1953125 C36.04423703 53.09099756 34.04602834 51.02813083 32 49 C28.15340985 50.57076535 25.79729615 53.0323684 22.9375 56 C20.34506045 58.68210288 18.10816238 60.92789175 15 63 C14.49156938 65.31753588 14.49156938 65.31753588 14.48828125 68.0078125 C14.45283203 68.99394531 14.41738281 69.98007813 14.38085938 70.99609375 C14.35830078 72.02863281 14.33574219 73.06117187 14.3125 74.125 C14.27833984 75.16527344 14.24417969 76.20554687 14.20898438 77.27734375 C14.12633831 79.85117834 14.06149784 82.42557329 14 85 C9.38 85 4.76 85 0 85 C0 56.95 0 28.9 0 0 Z " fill="#2E2D29" transform="translate(1141,1674)"/>
<path d="M0 0 C25.74 0 51.48 0 78 0 C78 3.63 78 7.26 78 11 C67.44 11 56.88 11 46 11 C46 35.42 46 59.84 46 85 C41.38 85 36.76 85 32 85 C32 60.58 32 36.16 32 11 C21.44 11 10.88 11 0 11 C0 7.37 0 3.74 0 0 Z " fill="#2E2D29" transform="translate(415,1674)"/>
<path d="M0 0 C5.07375 -0.0825 10.1475 -0.165 15.375 -0.25 C16.95458496 -0.28641602 18.53416992 -0.32283203 20.16162109 -0.36035156 C28.76431051 -0.42778951 37.324242 -0.39453572 43.95654297 5.83886719 C48.01751764 10.35545136 49.37690099 13.48341691 49.26953125 19.5546875 C48.72376854 24.50609988 46.9656582 28.37672079 43.09375 31.57421875 C37.16400879 35.43518831 32.42719537 36.14967281 25.390625 36.09765625 C24.74593262 36.09664917 24.10124023 36.09564209 23.43701172 36.09460449 C21.04132291 36.08939402 18.64565957 36.07543281 16.25 36.0625 C10.8875 36.041875 5.525 36.02125 0 36 C0 24.12 0 12.24 0 0 Z " fill="#EDE5DD" transform="translate(679,1685)"/>
<path d="M0 0 C0 5.28 0 10.56 0 16 C-1.55203125 16.21914063 -3.1040625 16.43828125 -4.703125 16.6640625 C-25.204268 19.64138029 -45.8228198 23.12918939 -65.62890625 29.3359375 C-68 30 -68 30 -71 30 C-71 24.39 -71 18.78 -71 13 C-18.91065292 0 -18.91065292 0 0 0 Z " fill="#2C2D27" transform="translate(947,751)"/>
<path d="M0 0 C0.33 0 0.66 0 1 0 C1.80554644 10.29729386 2.15260145 20.5164815 2.16062927 30.84803772 C2.1653749 32.38700959 2.17052771 33.92598025 2.17604691 35.46494955 C2.18979237 39.64945674 2.19748992 43.83395537 2.2040199 48.01847923 C2.21044135 51.61780992 2.22050305 55.2171269 2.23058056 58.81644893 C2.26369282 70.65190372 2.2853697 82.48736681 2.30378041 94.32285252 C2.30858433 97.40411386 2.3135664 100.48537486 2.31858563 103.56663585 C2.34952948 122.72384275 2.37619449 141.8810528 2.39300442 161.03827763 C2.3969534 165.46228605 2.40095651 169.88629442 2.4050293 174.31030273 C2.40603766 175.40976443 2.40704602 176.50922612 2.40808494 177.64200484 C2.4251308 195.49437896 2.46629815 213.34661546 2.51705229 231.19892222 C2.56877818 249.54404695 2.59793848 267.88910064 2.6052013 286.23429769 C2.60986591 296.52843521 2.62464511 306.82234597 2.6649456 317.11641121 C2.69918134 325.87123645 2.71321035 334.62579386 2.70052146 343.38068224 C2.69468235 347.84745987 2.69864711 352.31367042 2.7286911 356.78036308 C2.75596238 360.86797997 2.75562512 364.95462437 2.73318065 369.04226201 C2.72994629 370.5217365 2.73689267 372.00127508 2.75497787 373.48064256 C2.89780923 385.91645406 2.89780923 385.91645406 -0.92051601 389.91907406 C-4 392 -4 392 -6 392 C-5.505 390.02 -5.505 390.02 -5 388 C-4.01 388 -3.02 388 -2 388 C-2 387.34 -2 386.68 -2 386 C-1.34 386 -0.68 386 0 386 C-0.33 385.34 -0.66 384.68 -1 384 C-1.09523653 382.22785078 -1.12554914 380.45207455 -1.12584114 378.67736816 C-1.12975276 376.97246625 -1.12975276 376.97246625 -1.13374341 375.23312187 C-1.13039732 373.34365428 -1.13039732 373.34365428 -1.12698364 371.41601562 C-1.12813498 370.0722404 -1.12972259 368.72846549 -1.13171089 367.38469124 C-1.13590499 363.67760652 -1.13381287 359.97054738 -1.13072467 356.26346254 C-1.12847007 352.26795557 -1.1319512 348.27245311 -1.13470459 344.27694702 C-1.13916647 336.43045442 -1.13818228 328.58397136 -1.13529195 320.73747838 C-1.13303184 314.33444524 -1.13272806 307.93141477 -1.13381577 301.52838135 C-1.133969 300.61611782 -1.13412223 299.70385429 -1.13428011 298.76394641 C-1.13459987 296.90995804 -1.13492409 295.05596967 -1.1352527 293.20198131 C-1.13811067 275.77192366 -1.13481952 258.34187124 -1.12945233 240.91181445 C-1.12501991 226.06197519 -1.12572982 211.21214379 -1.13037109 196.36230469 C-1.1357739 179.06823218 -1.13779827 161.77416433 -1.13475883 144.48009109 C-1.13444036 142.61831919 -1.13412599 140.75654729 -1.13381577 138.89477539 C-1.13366149 137.97918814 -1.13350721 137.0636009 -1.13334826 136.12026858 C-1.13249732 129.7737814 -1.13393352 123.42729727 -1.13629532 117.08081055 C-1.14960692 78.04133078 -1.04365756 39.02879333 0 0 Z " fill="#24241E" transform="translate(1069,401)"/>
<path d="M0 0 C2.81048557 2.45775465 4.16172855 5.04923337 5.7421875 8.41015625 C6.25136719 9.48330078 6.76054688 10.55644531 7.28515625 11.66210938 C7.80980469 12.78423828 8.33445312 13.90636719 8.875 15.0625 C9.91329544 17.262081 10.95234919 19.46130421 11.9921875 21.66015625 C12.49331055 22.72508301 12.99443359 23.79000977 13.51074219 24.88720703 C15.31186814 28.65185554 17.20021328 32.36749834 19.12158203 36.07202148 C20 38 20 38 20 40 C7.13 40 -5.74 40 -19 40 C-16.74968099 33.24904296 -16.74968099 33.24904296 -15.32006836 30.30541992 C-15.00311508 29.64841599 -14.6861618 28.99141205 -14.35960388 28.3144989 C-14.02308304 27.62676895 -13.68656219 26.939039 -13.33984375 26.23046875 C-12.9899086 25.50886063 -12.63997345 24.7872525 -12.2794342 24.04377747 C-11.54408344 22.5293892 -10.8069473 21.0158667 -10.06811523 19.50317383 C-8.93353694 17.17938305 -7.80522344 14.852628 -6.67773438 12.52539062 C-5.96130265 11.05190574 -5.24451833 9.57859222 -4.52734375 8.10546875 C-4.01952614 7.05869209 -4.01952614 7.05869209 -3.50144958 5.99076843 C-1.11583322 1.11583322 -1.11583322 1.11583322 0 0 Z " fill="#ECE4DC" transform="translate(831,1688)"/>
<path d="M0 0 C0.66 0 1.32 0 2 0 C2.33209473 0.69448242 2.66418945 1.38896484 3.00634766 2.10449219 C4.54481862 5.32017932 6.08490234 8.53509165 7.625 11.75 C8.14707031 12.84183594 8.66914062 13.93367188 9.20703125 15.05859375 C12.3460256 21.60785357 15.55831645 28.10526498 18.91162109 34.54785156 C20 37 20 37 20 40 C7.13 40 -5.74 40 -19 40 C-12.68533579 26.65772561 -6.35135577 13.32484435 0 0 Z " fill="#EDE4DD" transform="translate(569,1688)"/>
<path d="M0 0 C0.66 0 1.32 0 2 0 C2.556875 1.1859375 3.11375 2.371875 3.6875 3.59375 C7.83218747 12.39492758 12.01910904 21.16532068 16.43554688 29.83398438 C18.13715661 33.19102237 19.59726829 36.49317074 21 40 C8.13 40 -4.74 40 -18 40 C-16.44659792 35.33979376 -14.71646507 31.11172875 -12.55859375 26.73828125 C-12.23085464 26.06580856 -11.90311554 25.39333588 -11.56544495 24.70048523 C-10.52629725 22.56942528 -9.48224953 20.44081851 -8.4375 18.3125 C-7.38984084 16.17315835 -6.34327451 14.03329928 -5.29884338 11.89237976 C-4.65092114 10.56473669 -4.00104456 9.23804517 -3.34898376 7.91242981 C-2.06989336 5.29551559 -0.92257396 2.76772187 0 0 Z " fill="#EAE1DA" transform="translate(1445,1688)"/>
<path d="M0 0 C0.66 0.99 1.32 1.98 2 3 C1.67 3.66 1.34 4.32 1 5 C12.88 4.67 24.76 4.34 37 4 C37 4.66 37 5.32 37 6 C24.13 6 11.26 6 -2 6 C-1.34 4.02 -0.68 2.04 0 0 Z " fill="#D9D3CC" transform="translate(814,1722)"/>
<path d="M0 0 C0.33 0.66 0.66 1.32 1 2 C-8.22551253 13.89066059 -8.22551253 13.89066059 -14 17 C-14 14 -14 14 -12.71484375 12.37426758 C-12.12832031 11.80345459 -11.54179688 11.2326416 -10.9375 10.64453125 C-10.30585937 10.02255859 -9.67421875 9.40058594 -9.0234375 8.75976562 C-8.35570312 8.11716797 -7.68796875 7.47457031 -7 6.8125 C-6.33226562 6.15830078 -5.66453125 5.50410156 -4.9765625 4.83007812 C-3.32421559 3.21313865 -1.66528399 1.60359509 0 0 Z M-17 17 C-16.01 17.495 -16.01 17.495 -15 18 C-15.99 18.495 -15.99 18.495 -17 19 C-17 18.34 -17 17.68 -17 17 Z " fill="#37342F" transform="translate(917,978)"/>
<path d="M0 0 C0.33 0.99 0.66 1.98 1 3 C-0.95191288 5.17277152 -2.91097537 7.33822461 -4.875 9.5 C-5.43058594 10.12003906 -5.98617188 10.74007812 -6.55859375 11.37890625 C-7.09355469 11.96542969 -7.62851563 12.55195312 -8.1796875 13.15625 C-8.67194824 13.70087891 -9.16420898 14.24550781 -9.67138672 14.80664062 C-11 16 -11 16 -13 16 C-12.42308522 12.83145253 -11.58353113 11.21773541 -9.27734375 8.984375 C-8.73916016 8.45585938 -8.20097656 7.92734375 -7.64648438 7.3828125 C-7.08251953 6.84398437 -6.51855469 6.30515625 -5.9375 5.75 C-5.36966797 5.19570313 -4.80183594 4.64140625 -4.21679688 4.0703125 C-2.81787531 2.70665786 -1.40980886 1.35239583 0 0 Z " fill="#F4EFE7" transform="translate(1239,674)"/>
<path d="M0 0 C-2.52807504 5.55429293 -6.46060239 10.70328633 -11.9375 13.5 C-12.618125 13.665 -13.29875 13.83 -14 14 C-12.41438362 10.14406926 -9.93490046 7.66783709 -7 4.75 C-6.113125 3.85796875 -5.22625 2.9659375 -4.3125 2.046875 C-2 0 -2 0 0 0 Z " fill="#F5F0E8" transform="translate(1096,825)"/>
<path d="M0 0 C0.33 0 0.66 0 1 0 C1.02684679 2.64590014 1.04676357 5.29153096 1.0625 7.9375 C1.07087891 8.69224609 1.07925781 9.44699219 1.08789062 10.22460938 C1.09652441 12.14994313 1.05224333 14.07535581 1 16 C0.67 16.33 0.34 16.66 0 17 C-0.28479122 19.77558423 -0.44843019 22.55127845 -0.62109375 25.3359375 C-1 28 -1 28 -3 31 C-2.69097798 27.14554629 -2.37715758 23.29149742 -2.0625 19.4375 C-1.97548828 18.35146484 -1.88847656 17.26542969 -1.79882812 16.14648438 C-1.35442934 10.73140286 -0.85462383 5.3664217 0 0 Z " fill="#4C4A43" transform="translate(755,1212)"/>
<path d="M0 0 C0.33 0.99 0.66 1.98 1 3 C-3.7652031 7.9240432 -8.88657333 12.44259642 -14 17 C-14.66 16.67 -15.32 16.34 -16 16 C-10.72 10.72 -5.44 5.44 0 0 Z " fill="#3C3933" transform="translate(1043,847)"/>
<path d="M0 0 C5.28 0 10.56 0 16 0 C16 0.66 16 1.32 16 2 C14 3.625 14 3.625 12 5 C11.34 4.67 10.68 4.34 10 4 C10.33 3.34 10.66 2.68 11 2 C7.37 2 3.74 2 0 2 C0 1.34 0 0.68 0 0 Z " fill="#3E3934" transform="translate(1206,1674)"/>
<path d="M0 0 C0.66 0.33 1.32 0.66 2 1 C-2.58943482 6.47262502 -7.11796517 11.8607903 -13 16 C-12.42308522 12.83145253 -11.58353113 11.21773541 -9.27734375 8.984375 C-8.73916016 8.45585938 -8.20097656 7.92734375 -7.64648438 7.3828125 C-7.08251953 6.84398437 -6.51855469 6.30515625 -5.9375 5.75 C-5.36966797 5.19570313 -4.80183594 4.64140625 -4.21679688 4.0703125 C-2.81787531 2.70665786 -1.40980886 1.35239583 0 0 Z " fill="#27261F" transform="translate(1100,788)"/>
<path d="M0 0 C4.95 0 9.9 0 15 0 C15 0.66 15 1.32 15 2 C13.75283203 2.09087891 13.75283203 2.09087891 12.48046875 2.18359375 C10.85044922 2.30927734 10.85044922 2.30927734 9.1875 2.4375 C7.56908203 2.55931641 7.56908203 2.55931641 5.91796875 2.68359375 C2.94010095 2.90212461 2.94010095 2.90212461 0 4 C0 2.68 0 1.36 0 0 Z " fill="#403E37" transform="translate(824,1674)"/>
<path d="M0 0 C0.33 0 0.66 0 1 0 C1.02687279 1.81242052 1.04633715 3.62495233 1.0625 5.4375 C1.07410156 6.44683594 1.08570313 7.45617188 1.09765625 8.49609375 C1 11 1 11 0 12 C-0.23075082 13.34747084 -0.41153063 14.70377565 -0.5625 16.0625 C-0.706875 17.361875 -0.85125 18.66125 -1 20 C-1.33 20 -1.66 20 -2 20 C-2.19266055 6.96330275 -2.19266055 6.96330275 -1 1 C-0.67 0.67 -0.34 0.34 0 0 Z " fill="#26251F" transform="translate(968,1216)"/>
<path d="M0 0 C0.66 0 1.32 0 2 0 C0.46356148 3.68069887 -1.78150945 5.98775204 -4.625 8.75 C-5.85089844 9.94882812 -5.85089844 9.94882812 -7.1015625 11.171875 C-7.72804688 11.77515625 -8.35453125 12.3784375 -9 13 C-9 9.79604584 -8.25664978 7.90600261 -7 5 C-6.01 5.33 -5.02 5.66 -4 6 C-4 5.34 -4 4.68 -4 4 C-3.34 4 -2.68 4 -2 4 C-1.67 3.01 -1.34 2.02 -1 1 C-0.67 0.67 -0.34 0.34 0 0 Z " fill="#23221E" transform="translate(649,475)"/>
<path d="M0 0 C0.66 0 1.32 0 2 0 C0.53033642 3.39859703 -1.38037514 5.64963709 -4 8.25 C-4.70125 8.95640625 -5.4025 9.6628125 -6.125 10.390625 C-8 12 -8 12 -10 12 C-10 11.34 -10 10.68 -10 10 C-9.34 10 -8.68 10 -8 10 C-7.67 8.68 -7.34 7.36 -7 6 C-6.01 6 -5.02 6 -4 6 C-4 5.34 -4 4.68 -4 4 C-3.34 4 -2.68 4 -2 4 C-1.34 2.68 -0.68 1.36 0 0 Z " fill="#292722" transform="translate(1023,833)"/>
<path d="M0 0 C0.33 0.66 0.66 1.32 1 2 C1.66 2.33 2.32 2.66 3 3 C-1.03872437 11.44646925 -1.03872437 11.44646925 -4 15 C-3.43179252 9.54520815 -2.05362055 5.08940744 0 0 Z " fill="#D8D3CA" transform="translate(865,598)"/>
<path d="M0 0 C0 3.66184524 -0.919642 5.02806 -3 8 C-5.1875 9.8125 -5.1875 9.8125 -7 11 C-7.33 10.34 -7.66 9.68 -8 9 C-6.85459775 7.68712379 -5.70866567 6.37470979 -4.5625 5.0625 C-3.92441406 4.33160156 -3.28632812 3.60070312 -2.62890625 2.84765625 C-1.77458541 1.87860647 -0.91348825 0.91348825 0 0 Z " fill="#3B3A34" transform="translate(1158,727)"/>
<path d="M0 0 C1.27230469 0.01804687 2.54460938 0.03609375 3.85546875 0.0546875 C5.31919922 0.08949219 5.31919922 0.08949219 6.8125 0.125 C6.8125 0.455 6.8125 0.785 6.8125 1.125 C0.79017819 2.59119907 -4.09117577 3.45028788 -10.1875 2.125 C-6.4507157 -0.36618953 -4.44298181 -0.0815226 0 0 Z " fill="#F5F0E9" transform="translate(838.1875,397.875)"/>
<path d="M0 0 C0 3.69942045 -0.85819127 4.40155392 -3.25 7.125 C-3.85328125 7.82882812 -4.4565625 8.53265625 -5.078125 9.2578125 C-7.10469267 11.09490433 -8.32969429 11.6100881 -11 12 C-7.49102731 7.81576108 -3.91939465 3.80411834 0 0 Z " fill="#3B3934" transform="translate(892,1004)"/>
<path d="M0 0 C0.66 0 1.32 0 2 0 C1.52140759 1.60433809 1.04210442 3.20846416 0.5625 4.8125 C0.29566406 5.70582031 0.02882813 6.59914063 -0.24609375 7.51953125 C-0.80387873 9.35473055 -1.39344575 11.18033726 -2 13 C-2.99 13.33 -3.98 13.66 -5 14 C-3.45730076 9.27934033 -1.92205381 4.58335908 0 0 Z " fill="#E0DCD6" transform="translate(591,1008)"/>
<path d="M0 0 C0.33 0.99 0.66 1.98 1 3 C-3.455 6.96 -3.455 6.96 -8 11 C-8.66 10.67 -9.32 10.34 -10 10 C-9.38125 9.7525 -8.7625 9.505 -8.125 9.25 C-5.57496075 7.74997691 -5.23777652 6.6302751 -4 4 C-2.70529025 2.62913085 -1.37849103 1.28659163 0 0 Z " fill="#DBD7D1" transform="translate(997,863)"/>
<path d="M0 0 C0 3 0 3 -2 6 C-0.68 6.66 0.64 7.32 2 8 C-1.05263664 8.98120464 -2.94736336 8.98120464 -6 8 C-4.55746343 4.63408134 -2.66735273 2.48952921 0 0 Z " fill="#CBC9C2" transform="translate(1163,752)"/>
<path d="M0 0 C0 0.66 0 1.32 0 2 C-5.23471686 2.75612577 -9.77254141 3.2063366 -15 2 C-15 1.67 -15 1.34 -15 1 C-13.25215171 0.63536268 -11.50159498 0.2836922 -9.75 -0.0625 C-8.28820313 -0.35833984 -8.28820313 -0.35833984 -6.796875 -0.66015625 C-4.131881 -0.98397535 -2.51128277 -0.85503199 0 0 Z " fill="#4F4C47" transform="translate(1355,373)"/>
<path d="M0 0 C0 0.66 0 1.32 0 2 C1.65 2 3.3 2 5 2 C5 2.33 5 2.66 5 3 C-0.61 2.67 -6.22 2.34 -12 2 C-12 1.67 -12 1.34 -12 1 C-7.93631321 0.22596442 -4.13574827 -0.0984702 0 0 Z " fill="#585650" transform="translate(1500,1445)"/>
<path d="M0 0 C0.33 0.66 0.66 1.32 1 2 C-1.31 4.64 -3.62 7.28 -6 10 C-6.99 9.67 -7.98 9.34 -9 9 C-6.03 6.03 -3.06 3.06 0 0 Z " fill="#3C3933" transform="translate(1068,821)"/>
<path d="M0 0 C0.33 0.99 0.66 1.98 1 3 C-1.31 4.98 -3.62 6.96 -6 9 C-4.86634892 4.46539569 -3.35806626 3.09975347 0 0 Z " fill="#F6F1EB" transform="translate(1056,802)"/>
<path d="M0 0 C0.33 0 0.66 0 1 0 C1 2.97 1 5.94 1 9 C0.01 9 -0.98 9 -2 9 C-2.125 5.625 -2.125 5.625 -2 2 C-1.34 1.34 -0.68 0.68 0 0 Z " fill="#35342E" transform="translate(1434,1086)"/>
<path d="M0 0 C0.33 0 0.66 0 1 0 C1 5.94 1 11.88 1 18 C0.67 18 0.34 18 0 18 C-0.144375 17.2575 -0.28875 16.515 -0.4375 15.75 C-0.78078418 14.07172178 -1.16651881 12.40053228 -1.625 10.75 C-1.810625 9.88375 -1.810625 9.88375 -2 9 C-1.67 8.67 -1.34 8.34 -1 8 C-0.76924918 6.65252916 -0.58846937 5.29622435 -0.4375 3.9375 C-0.293125 2.638125 -0.14875 1.33875 0 0 Z " fill="#1C1C17" transform="translate(853,1024)"/>
<path d="M0 0 C-1.35021826 4.41889613 -3.26115668 6.34345343 -7 9 C-7.66 8.34 -8.32 7.68 -9 7 C-7.88121617 5.82737096 -6.75476949 4.66204862 -5.625 3.5 C-4.68527344 2.52546875 -4.68527344 2.52546875 -3.7265625 1.53125 C-2 0 -2 0 0 0 Z " fill="#DDD8D0" transform="translate(985,939)"/>
<path d="M0 0 C6.27 0 12.54 0 19 0 C18 2 18 2 16 2.6875 C15.34 2.790625 14.68 2.89375 14 3 C13.67 2.67 13.34 2.34 13 2 C10.81707226 1.76518307 8.62796826 1.58636677 6.4375 1.4375 C5.23996094 1.35371094 4.04242187 1.26992188 2.80859375 1.18359375 C1.88175781 1.12300781 0.95492188 1.06242187 0 1 C0 0.67 0 0.34 0 0 Z " fill="#21211C" transform="translate(1268,377)"/>
<path d="M0 0 C1.65 0.33 3.3 0.66 5 1 C4.319375 1.804375 4.319375 1.804375 3.625 2.625 C1.78311688 5.31698302 0.92028067 7.88520388 0 11 C-0.33 11 -0.66 11 -1 11 C-1.14285714 3.57142857 -1.14285714 3.57142857 0 0 Z " fill="#3A3835" transform="translate(650,346)"/>
<path d="M0 0 C0.185625 0.639375 0.37125 1.27875 0.5625 1.9375 C1.94246056 4.42126213 1.94246056 4.42126213 5.625 4.75 C6.73875 4.8325 7.8525 4.915 9 5 C6.03312999 6.64826111 3.34373475 7.44271087 0 8 C0 5.36 0 2.72 0 0 Z " fill="#534F4A" transform="translate(876,773)"/>
<path d="M0 0 C0 3.77910478 -0.99703962 4.46106101 -3.5 7.1875 C-4.1496875 7.90292969 -4.799375 8.61835938 -5.46875 9.35546875 C-5.9740625 9.89816406 -6.479375 10.44085938 -7 11 C-7.66 10.67 -8.32 10.34 -9 10 C-6.03 6.7 -3.06 3.4 0 0 Z " fill="#E3DFD8" transform="translate(639,489)"/>
<path d="M0 0 C0.66 0 1.32 0 2 0 C2.33 3.3 2.66 6.6 3 10 C0 8 0 8 -0.75 5.5625 C-1 3 -1 3 0 0 Z " fill="#504F47" transform="translate(563,1203)"/>
<path d="M0 0 C0.67578125 1.796875 0.67578125 1.796875 1 4 C-0.14453125 5.703125 -0.14453125 5.703125 -1.8125 7.25 C-2.62654297 8.03117188 -2.62654297 8.03117188 -3.45703125 8.828125 C-5 10 -5 10 -7 10 C-6.67 8.68 -6.34 7.36 -6 6 C-5.01 6 -4.02 6 -3 6 C-3 5.34 -3 4.68 -3 4 C-2.34 4 -1.68 4 -1 4 C-0.67 2.68 -0.34 1.36 0 0 Z " fill="#272520" transform="translate(1070,783)"/>
<path d="M0 0 C0.66 0.33 1.32 0.66 2 1 C-1.465 3.97 -1.465 3.97 -5 7 C-5.33 6.01 -5.66 5.02 -6 4 C-3.94766315 1.7522025 -2.99332739 0.9977758 0 0 Z " fill="#F6F0E8" transform="translate(1282,633)"/>
<path d="M0 0 C0.66 0.33 1.32 0.66 2 1 C-1.08290155 5.22797927 -1.08290155 5.22797927 -3 7 C-5.8125 7.375 -5.8125 7.375 -8 7 C-5.4837822 4.39391727 -2.94865641 2.10618315 0 0 Z " fill="#E5E0D7" transform="translate(1322,599)"/>
<path d="M0 0 C0.66 0.33 1.32 0.66 2 1 C1.34 1.66 0.68 2.32 0 3 C-0.6425235 5.06874034 -0.6425235 5.06874034 -1 7 C-2.98 7.33 -4.96 7.66 -7 8 C-6.02133662 6.85373678 -5.04205413 5.70800212 -4.0625 4.5625 C-3.51722656 3.92441406 -2.97195313 3.28632812 -2.41015625 2.62890625 C-1.63204305 1.73008851 -0.84063472 0.84063472 0 0 Z " fill="#DBD6CF" transform="translate(880,577)"/>
<path d="M0 0 C0.99 0.33 1.98 0.66 3 1 C-2.14285714 6.57142857 -2.14285714 6.57142857 -6 7 C-4.61990379 3.66476748 -3.15049348 1.81392049 0 0 Z " fill="#F4F1EA" transform="translate(678,454)"/>
<path d="M0 0 C-1.39332574 3.36720387 -2.9789286 4.9859524 -6 7 C-6.33 5.68 -6.66 4.36 -7 3 C-2.25 0 -2.25 0 0 0 Z " fill="#F2EFE6" transform="translate(689,448)"/>
<path d="M0 0 C-5.91256999 2.60848676 -10.64466135 3.36185828 -17 2 C-17 1.67 -17 1.34 -17 1 C-14.91835982 0.63601378 -12.83459438 0.28416713 -10.75 -0.0625 C-9.00976562 -0.35833984 -9.00976562 -0.35833984 -7.234375 -0.66015625 C-4.37477376 -0.9606216 -2.66674071 -0.9439206 0 0 Z " fill="#6A6761" transform="translate(1059,1533)"/>
<path d="M0 0 C0.66 0 1.32 0 2 0 C1.45276317 3.37462715 0.9451 5.08235 -1 8 C-1.66 8 -2.32 8 -3 8 C-2.45276317 4.62537285 -1.9451 2.91765 0 0 Z " fill="#F4EFE8" transform="translate(1253,614)"/>
<path d="M0 0 C0.66 0 1.32 0 2 0 C1.25 7.75 1.25 7.75 -1 10 C-2.46726798 6.18510326 -1.43336419 3.70988378 0 0 Z " fill="#F6F0EB" transform="translate(646,352)"/>
<path d="M0 0 C0.66 0.33 1.32 0.66 2 1 C-3.14285714 6.57142857 -3.14285714 6.57142857 -7 7 C-2.25 1.125 -2.25 1.125 0 0 Z " fill="#35332D" transform="translate(672,872)"/>
<path d="M0 0 C-0.57344937 2.86724686 -0.8614515 3.8614515 -3 6 C-5.125 5.625 -5.125 5.625 -7 5 C-2.25 0 -2.25 0 0 0 Z " fill="#DFDAD3" transform="translate(1221,694)"/>
<path d="M0 0 C0.99 0.495 0.99 0.495 2 1 C3.28317892 4.84953676 3.06643637 7.94738135 3 12 C0.97649676 8.96474514 0.67875982 7.80573798 0.375 4.3125 C0.30023437 3.50425781 0.22546875 2.69601562 0.1484375 1.86328125 C0.09945312 1.24839844 0.05046875 0.63351562 0 0 Z " fill="#F3F1E8" transform="translate(747,611)"/>
<path d="M0 0 C0.33 0 0.66 0 1 0 C0.40546697 9.59453303 0.40546697 9.59453303 -3 13 C-2.88490339 11.58249437 -2.75746342 10.16598831 -2.625 8.75 C-2.55539062 7.96109375 -2.48578125 7.1721875 -2.4140625 6.359375 C-1.98492887 3.914123 -1.21399362 2.15163097 0 0 Z " fill="#25221E" transform="translate(648,358)"/>
<path d="M0 0 C0.66 0.33 1.32 0.66 2 1 C1.38461538 6.53846154 1.38461538 6.53846154 -0.5625 8.875 C-1.036875 9.24625 -1.51125 9.6175 -2 10 C-1.46274105 6.62294375 -0.88935377 3.303314 0 0 Z " fill="#DED7CD" transform="translate(1449,1235)"/>
<path d="M0 0 C0.33 0 0.66 0 1 0 C0.125 7.75 0.125 7.75 -1 10 C-1.66 10 -2.32 10 -3 10 C-2.69201674 8.51988629 -2.378482 7.04092675 -2.0625 5.5625 C-1.88847656 4.73878906 -1.71445312 3.91507813 -1.53515625 3.06640625 C-1 1 -1 1 0 0 Z " fill="#272520" transform="translate(575,1047)"/>
<path d="M0 0 C3.63 0.66 7.26 1.32 11 2 C8 4 8 4 5.73828125 3.7578125 C4.93777344 3.54898438 4.13726563 3.34015625 3.3125 3.125 C2.50425781 2.92132812 1.69601562 2.71765625 0.86328125 2.5078125 C0.24839844 2.34023438 -0.36648438 2.17265625 -1 2 C-0.67 1.34 -0.34 0.68 0 0 Z " fill="#E0DAD1" transform="translate(1152,775)"/>
<path d="M0 0 C0.66 0 1.32 0 2 0 C0.70700306 2.88437779 -0.65941363 4.87219421 -3 7 C-3.99 6.67 -4.98 6.34 -6 6 C-5.38125 5.7525 -4.7625 5.505 -4.125 5.25 C-1.64931313 3.79371361 -1.04874998 2.62187494 0 0 Z " fill="#F2EEE7" transform="translate(1015,873)"/>
<path d="M0 0 C6.4 -0.36923077 6.4 -0.36923077 9.4375 1.5 C9.953125 1.995 10.46875 2.49 11 3 C6.78121808 3.19622241 3.82989106 2.80230168 0 1 C0 0.67 0 0.34 0 0 Z " fill="#F6F2EA" transform="translate(1162,759)"/>
<path d="M0 0 C0 3.90838866 -1.50567876 5.11594107 -4 8 C-4.99 7.67 -5.98 7.34 -7 7 C-4.69 4.69 -2.38 2.38 0 0 Z " fill="#DAD7CE" transform="translate(1271,641)"/>
<path d="M0 0 C0 0.66 0 1.32 0 2 C-5.45769231 5.10096154 -5.45769231 5.10096154 -8.203125 4.58984375 C-8.79609375 4.39519531 -9.3890625 4.20054687 -10 4 C-8.71086513 3.32845067 -7.41859796 2.66291141 -6.125 2 C-5.40570312 1.62875 -4.68640625 1.2575 -3.9453125 0.875 C-2 0 -2 0 0 0 Z " fill="#DAD5CB" transform="translate(724,428)"/>
<path d="M0 0 C0 0.33 0 0.66 0 1 C-4.8333472 1.08333357 -9.23692563 0.95261487 -14 0 C-14 -0.33 -14 -0.66 -14 -1 C-9.04653013 -2.59789351 -4.86717585 -1.28306814 0 0 Z " fill="#CCC8C2" transform="translate(706,374)"/>
<path d="M0 0 C2.17766075 4.35532149 2.03039555 5.46625958 1 10 C0.34 10 -0.32 10 -1 10 C-0.67 6.7 -0.34 3.4 0 0 Z " fill="#DBD6D0" transform="translate(565,1095)"/>
<path d="M0 0 C0.33 0 0.66 0 1 0 C1.36923077 6.52307692 1.36923077 6.52307692 -0.5 8.9375 C-0.995 9.288125 -1.49 9.63875 -2 10 C-1.125 2.25 -1.125 2.25 0 0 Z " fill="#3A3933" transform="translate(549,1090)"/>
<path d="M0 0 C0.66 0.33 1.32 0.66 2 1 C0.1875 3.5 0.1875 3.5 -2 6 C-2.99 6 -3.98 6 -5 6 C-3.86695008 2.60085025 -2.87481525 1.94745549 0 0 Z " fill="#373631" transform="translate(642,923)"/>
<path d="M0 0 C0 0.99 0 1.98 0 3 C-3.37462715 2.45276317 -5.08235 1.9451 -8 0 C-4.71023192 -1.09658936 -3.28696233 -0.79953138 0 0 Z " fill="#DEDBD4" transform="translate(1215,774)"/>
<path d="M0 0 C0.99 0.66 1.98 1.32 3 2 C0.69 3.32 -1.62 4.64 -4 6 C-3.67 4.35 -3.34 2.7 -3 1 C-2.01 0.67 -1.02 0.34 0 0 Z " fill="#383630" transform="translate(1324,595)"/>
<path d="M0 0 C0.99 0 1.98 0 3 0 C3.66 1.98 4.32 3.96 5 6 C4.01 6.495 4.01 6.495 3 7 C0 2.25 0 2.25 0 0 Z " fill="#35332E" transform="translate(1254,577)"/>
<path d="M0 0 C-1.65 1.32 -3.3 2.64 -5 4 C-7 3 -7 3 -8 1 C-3.375 -1.125 -3.375 -1.125 0 0 Z " fill="#E8E2DA" transform="translate(739,423)"/>
<path d="M0 0 C2.31 0 4.62 0 7 0 C7 0.66 7 1.32 7 2 C7.66 2.33 8.32 2.66 9 3 C6.03 2.67 3.06 2.34 0 2 C0 1.34 0 0.68 0 0 Z " fill="#393731" transform="translate(1232,400)"/>
<path d="M0 0 C1.98 1.65 3.96 3.3 6 5 C4.68 5.33 3.36 5.66 2 6 C2 5.34 2 4.68 2 4 C1.34 4 0.68 4 0 4 C0 2.68 0 1.36 0 0 Z " fill="#403E38" transform="translate(1433,1349)"/>
<path d="M0 0 C0.99 0 1.98 0 3 0 C3 2 3 2 1.125 4.125 C-1 6 -1 6 -3 6 C-2.42655063 3.13275314 -2.1385485 2.1385485 0 0 Z " fill="#23221E" transform="translate(992,961)"/>
<path d="M0 0 C0 0.33 0 0.66 0 1 C-3.63 1.66 -7.26 2.32 -11 3 C-11 2.34 -11 1.68 -11 1 C-6.92630576 -1.03684712 -4.41062136 -1.0257259 0 0 Z " fill="#3C3B35" transform="translate(898,775)"/>
<path d="M0 0 C0.66 0 1.32 0 2 0 C1.67 2.97 1.34 5.94 1 9 C-1.08954032 4.82091936 -1.16552619 4.19589427 0 0 Z " fill="#3B3A34" transform="translate(859,610)"/>
<path d="M0 0 C-5.41538462 4.06153846 -5.41538462 4.06153846 -8.375 3.75 C-8.91125 3.5025 -9.4475 3.255 -10 3 C-3.375 -1.125 -3.375 -1.125 0 0 Z " fill="#282620" transform="translate(1351,582)"/>
<path d="M0 0 C1.98 0 3.96 0 6 0 C6.33 0.99 6.66 1.98 7 3 C4.36 2.67 1.72 2.34 -1 2 C-0.67 1.34 -0.34 0.68 0 0 Z " fill="#262621" transform="translate(1217,396)"/>
</svg>
